<svg width="18" height="20" viewBox="0 0 18 20" fill="none" xmlns="http://www.w3.org/2000/svg">
<path d="M1.73755 18.2087C-0.61008 15.8536 -0.566326 12.0559 1.79324 9.70942L10.2211 1.32814C12.0016 -0.442636 14.8959 -0.442792 16.6766 1.32814C18.4401 3.08181 18.4422 5.9113 16.6766 7.66704L9.33001 14.9659C8.13048 16.1588 6.17065 16.1421 4.99145 14.927C3.85541 13.7563 3.89185 11.9007 5.04979 10.7491L10.8252 5.01337C11.0736 4.76673 11.4806 4.76251 11.7343 5.00396L12.6528 5.87814C12.9065 6.11962 12.9108 6.51532 12.6625 6.76196L6.88768 12.4972C6.68952 12.6942 6.67731 13.0217 6.86165 13.2117C7.03731 13.3927 7.31345 13.3957 7.49197 13.2181L14.8386 5.91927C15.6266 5.1356 15.6266 3.8597 14.8381 3.0756C14.0671 2.30892 12.8309 2.30853 12.0596 3.0756L3.63173 11.4568C2.235 12.8459 2.21347 15.0943 3.58388 16.4691C4.95035 17.8399 7.15917 17.8416 8.52817 16.4802L15.4413 9.60528C15.6895 9.35844 16.0965 9.35399 16.3504 9.59528L17.2695 10.4689C17.5234 10.7102 17.528 11.1059 17.2798 11.3527L10.3667 18.2276C7.97302 20.608 4.10114 20.5798 1.73755 18.2087Z" fill="white"/>
</svg>
