<svg width="33" height="47" viewBox="0 0 33 47" fill="none" xmlns="http://www.w3.org/2000/svg">
<path d="M7.74061 37.6813C8.40577 38.1147 9.25727 38.2447 10.0524 37.9695L15.5471 36.0975C16.1048 35.9073 16.7098 35.9073 17.2674 36.0975L22.7621 37.9695C23.5594 38.2425 24.4088 38.1147 25.0739 37.6813V46.1183L16.4073 43.176L7.74061 46.1183V37.6813ZM15.7074 32.5463L11.2398 34.0695C10.7396 34.2398 10.1944 34.2215 9.70684 34.018C9.21924 33.8145 8.8228 33.4398 8.59211 32.9645L6.41461 28.4903C6.21455 28.0769 5.8883 27.7378 5.48294 27.5218L1.14961 25.2252C0.703656 24.988 0.354574 24.6025 0.162698 24.1353C-0.0291774 23.668 -0.0517885 23.1485 0.0987731 22.6663L1.63711 17.7415C1.76836 17.3211 1.76836 16.8706 1.63711 16.4502L0.0987731 11.5253C-0.05218 11.0427 -0.0295382 10.5224 0.162777 10.0547C0.355091 9.58693 0.704963 9.20121 1.15177 8.96432L5.48511 6.66766C5.89013 6.45229 6.21634 6.11394 6.41677 5.70132L8.59211 1.22066C8.8228 0.745316 9.21924 0.370653 9.70684 0.167151C10.1944 -0.0363497 10.7396 -0.0546624 11.2398 0.115658L15.7074 1.64099C16.1611 1.79584 16.6534 1.79584 17.1071 1.64099L21.5748 0.117825C22.0749 -0.0524957 22.6201 -0.0341829 23.1077 0.169318C23.5953 0.372819 23.9917 0.747482 24.2224 1.22283L26.3999 5.69916C26.6 6.11258 26.9263 6.45173 27.3316 6.66766L31.6649 8.96432C32.1104 9.20141 32.4592 9.58656 32.651 10.0533C32.8429 10.5201 32.8658 11.0392 32.7158 11.521L31.1774 16.448C31.0462 16.8684 31.0462 17.3189 31.1774 17.7393L32.7158 22.6642C32.8667 23.1468 32.8441 23.6671 32.6518 24.1348C32.4595 24.6025 32.1096 24.9883 31.6628 25.2252L27.3316 27.5218C26.9266 27.7372 26.6004 28.0755 26.3999 28.4882L24.2224 32.9667C23.9914 33.4416 23.5948 33.8158 23.1072 34.0189C22.6196 34.222 22.0747 34.24 21.5748 34.0695L17.1071 32.5463C16.6534 32.3915 16.1611 32.3915 15.7074 32.5463ZM16.4073 10.5937C15.8326 10.5937 15.2815 10.8219 14.8752 11.2283C14.4689 11.6346 14.2406 12.1857 14.2406 12.7603V21.427C14.2406 22.0016 14.4689 22.5527 14.8752 22.9591C15.2815 23.3654 15.8326 23.5937 16.4073 23.5937C16.9819 23.5937 17.533 23.3654 17.9393 22.9591C18.3457 22.5527 18.5739 22.0016 18.5739 21.427V12.7603C18.5739 12.1857 18.3457 11.6346 17.9393 11.2283C17.533 10.8219 16.9819 10.5937 16.4073 10.5937Z" fill="white"/>
</svg>
