<svg
  class="vector"
  width="33"
  height="43"
  viewBox="0 0 33 43"
  fill="none"
  xmlns="http://www.w3.org/2000/svg"
>
  <path
    d="M7.74061 34.97C8.40577 35.3711 9.25727 35.4914 10.0524 35.2367L15.5471 33.5044C16.1048 33.3284 16.7098 33.3284 17.2674 33.5044L22.7621 35.2367C23.5594 35.4893 24.4088 35.3711 25.0739 34.97V42.7777L16.4073 40.0548L7.74061 42.7777V34.97ZM15.7074 30.2181L11.2398 31.6276C10.7396 31.7853 10.1944 31.7683 9.70684 31.58C9.21924 31.3917 8.8228 31.045 8.59211 30.6051L6.41461 26.4647C6.21455 26.0821 5.8883 25.7682 5.48294 25.5684L1.14961 23.4431C0.703656 23.2236 0.354574 22.8668 0.162698 22.4345C-0.0291774 22.0021 -0.0517885 21.5213 0.0987731 21.0751L1.63711 16.5177C1.76836 16.1286 1.76836 15.7117 1.63711 15.3226L0.0987731 10.7652C-0.05218 10.3185 -0.0295382 9.83707 0.162777 9.40423C0.355091 8.97139 0.704963 8.61444 1.15177 8.39523L5.48511 6.26988C5.89013 6.07058 6.21634 5.75747 6.41677 5.37564L8.59211 1.22921C8.8228 0.789327 9.21924 0.442613 9.70684 0.254292C10.1944 0.0659713 10.7396 0.0490246 11.2398 0.20664L15.7074 1.61819C16.1611 1.76149 16.6534 1.76149 17.1071 1.61819L21.5748 0.208645C22.0749 0.0510297 22.6201 0.0679764 23.1077 0.256297C23.5953 0.444618 23.9917 0.791332 24.2224 1.23122L26.3999 5.37363C26.6 5.75621 26.9263 6.07006 27.3316 6.26988L31.6649 8.39523C32.1104 8.61463 32.4592 8.97105 32.651 9.40298C32.8429 9.83492 32.8658 10.3153 32.7158 10.7612L31.1774 15.3206C31.0462 15.7097 31.0462 16.1266 31.1774 16.5156L32.7158 21.0731C32.8667 21.5198 32.8441 22.0012 32.6518 22.4341C32.4595 22.8669 32.1096 23.2238 31.6628 23.4431L27.3316 25.5684C26.9266 25.7677 26.6004 26.0808 26.3999 26.4627L24.2224 30.6071C23.9914 31.0466 23.5948 31.3929 23.1072 31.5808C22.6196 31.7687 22.0747 31.7854 21.5748 31.6276L17.1071 30.2181C16.6534 30.0748 16.1611 30.0748 15.7074 30.2181ZM16.4073 9.90302C15.8326 9.90302 15.2815 10.1143 14.8752 10.4903C14.4689 10.8663 14.2406 11.3763 14.2406 11.9081V19.9282C14.2406 20.46 14.4689 20.97 14.8752 21.346C15.2815 21.722 15.8326 21.9333 16.4073 21.9333C16.9819 21.9333 17.533 21.722 17.9393 21.346C18.3457 20.97 18.5739 20.46 18.5739 19.9282V11.9081C18.5739 11.3763 18.3457 10.8663 17.9393 10.4903C17.533 10.1143 16.9819 9.90302 16.4073 9.90302Z"
    fill="white"
  />
</svg>
