<svg width="46" height="46" viewBox="0 0 46 46" fill="none" xmlns="http://www.w3.org/2000/svg">
<circle cx="23" cy="23" r="22.5" fill="#191B1F" stroke="#EEEEEE"/>
<path d="M21.72 16.94C21.8 17.58 21.8467 18.3267 21.86 19.18C21.8733 20.02 21.86 20.8733 21.82 21.74C21.7933 22.5933 21.7333 23.4067 21.64 24.18C21.5467 24.94 21.4333 25.5533 21.3 26.02C21.2067 26.3 21.0933 26.5933 20.96 26.9C20.84 27.1933 20.7067 27.46 20.56 27.7C20.3467 28.06 20.0867 28.38 19.78 28.66C19.4733 28.9267 19.1333 29.16 18.76 29.36C18.4 29.5467 18.0133 29.6933 17.6 29.8C17.2 29.9067 16.8 29.9667 16.4 29.98C15.6933 30.0067 15.02 29.9067 14.38 29.68C13.7533 29.44 13.1733 29.0667 12.64 28.56C12.24 28.1733 11.92 27.76 11.68 27.32C11.44 26.88 11.2533 26.42 11.12 25.94C10.9867 25.4467 10.9 24.94 10.86 24.42C10.8333 23.9 10.82 23.3667 10.82 22.82C10.82 22.5667 10.8133 22.2533 10.8 21.88C10.8 21.4933 10.8 21.1 10.8 20.7C10.8 20.2867 10.8 19.8867 10.8 19.5C10.8 19.1133 10.8067 18.7867 10.82 18.52C10.82 18.3467 10.82 18.16 10.82 17.96C10.82 17.7467 10.8267 17.54 10.84 17.34C10.8667 17.1267 10.9067 16.9267 10.96 16.74C11.0133 16.54 11.0933 16.36 11.2 16.2C11.32 16.0267 11.4867 15.9 11.7 15.82C11.9133 15.74 12.1333 15.7 12.36 15.7C12.6 15.7 12.8267 15.7467 13.04 15.84C13.2533 15.9333 13.4267 16.0667 13.56 16.24C13.6267 16.3467 13.6733 16.4533 13.7 16.56C13.7267 16.6667 13.7467 16.7867 13.76 16.92C13.7867 17.36 13.8 17.86 13.8 18.42C13.8133 18.98 13.8133 19.5267 13.8 20.06C13.8 20.58 13.7933 21.06 13.78 21.5C13.7667 21.94 13.76 22.2667 13.76 22.48C13.76 23.28 13.8 24.0067 13.88 24.66C13.96 25.3 14.1467 25.8333 14.44 26.26C14.7067 26.6467 15.02 26.8933 15.38 27C15.74 27.1067 16.1 27.14 16.46 27.1C16.7933 27.06 17.1267 26.94 17.46 26.74C17.8067 26.5267 18.08 26.22 18.28 25.82C18.36 25.6733 18.4267 25.5067 18.48 25.32C18.5333 25.1333 18.5733 24.96 18.6 24.8C18.6533 24.2933 18.7 23.7067 18.74 23.04C18.78 22.36 18.8133 21.6667 18.84 20.96C18.8667 20.2533 18.88 19.56 18.88 18.88C18.88 18.2 18.8733 17.5867 18.86 17.04C18.8867 16.8 18.96 16.58 19.08 16.38C19.1867 16.2067 19.34 16.0533 19.54 15.92C19.74 15.7867 20.0133 15.72 20.36 15.72C20.64 15.7333 20.8667 15.8067 21.04 15.94C21.2133 16.06 21.3533 16.1933 21.46 16.34C21.58 16.5133 21.6667 16.7133 21.72 16.94ZM34.2558 28.16C34.4024 28.4267 34.4624 28.66 34.4358 28.86C34.4224 29.06 34.4024 29.2267 34.3758 29.36C34.3358 29.5067 34.2358 29.6333 34.0758 29.74C33.9291 29.8333 33.7624 29.9067 33.5758 29.96C33.3358 30.0267 33.1358 30.04 32.9758 30C32.7758 29.96 32.6091 29.8933 32.4758 29.8C32.3958 29.7333 32.3224 29.6733 32.2558 29.62C32.1891 29.5533 32.1224 29.4933 32.0558 29.44C31.9891 29.3733 31.9291 29.3133 31.8758 29.26C31.8224 29.2067 31.7824 29.1533 31.7558 29.1C31.7291 29.0467 31.7024 29.0133 31.6758 29C31.6624 28.9733 31.6491 28.9533 31.6358 28.94L28.9758 25.1L26.3358 28.94C26.3224 28.9533 26.3024 28.9733 26.2758 29C26.2624 29.0133 26.2358 29.0467 26.1958 29.1C26.1691 29.1533 26.1291 29.2067 26.0758 29.26C26.0358 29.3133 25.9891 29.3733 25.9358 29.44C25.8691 29.4933 25.7958 29.5533 25.7158 29.62C25.6358 29.6733 25.5624 29.7333 25.4958 29.8C25.4158 29.8533 25.3291 29.8933 25.2358 29.92C25.1558 29.9467 25.0758 29.9733 24.9958 30C24.8224 30.04 24.6358 30.0267 24.4358 29.96C24.0224 29.8667 23.7358 29.6667 23.5758 29.36C23.4958 29.2 23.4624 29.0333 23.4758 28.86C23.4891 28.6733 23.5291 28.4867 23.5958 28.3C23.6758 28.1133 23.7624 27.9333 23.8558 27.76C23.9624 27.5867 24.0691 27.42 24.1758 27.26C24.2291 27.1933 24.2758 27.1333 24.3158 27.08C24.3691 27.0267 24.4224 26.9667 24.4758 26.9C24.6491 26.6733 24.8158 26.4467 24.9758 26.22C25.1358 25.98 25.3091 25.7267 25.4958 25.46L27.3558 22.76L24.6158 18.8L24.3758 18.46C24.3224 18.38 24.2691 18.3067 24.2158 18.24C24.1624 18.1733 24.1091 18.0933 24.0558 18C24.0024 17.9333 23.9491 17.86 23.8958 17.78C23.8424 17.7 23.7958 17.6067 23.7558 17.5C23.7158 17.42 23.6758 17.3467 23.6358 17.28C23.6091 17.2 23.5824 17.1067 23.5558 17C23.5158 16.84 23.5024 16.6933 23.5158 16.56C23.5558 16.3867 23.6424 16.24 23.7758 16.12C23.8291 16.0533 23.8891 16 23.9558 15.96C24.0358 15.92 24.1091 15.88 24.1758 15.84C24.3091 15.7867 24.4291 15.7467 24.5358 15.72C24.6424 15.6933 24.7558 15.68 24.8758 15.68C25.1158 15.6933 25.3424 15.78 25.5558 15.94C25.8224 16.1133 26.0624 16.3267 26.2758 16.58C26.3691 16.7267 26.4624 16.8667 26.5558 17C26.6491 17.12 26.7491 17.2467 26.8558 17.38L26.8758 17.46C27.2091 17.9 27.5091 18.3267 27.7758 18.74C28.0558 19.14 28.3624 19.5667 28.6958 20.02C28.7491 20.0867 28.7958 20.1533 28.8358 20.22C28.8758 20.2867 28.9224 20.3533 28.9758 20.42C29.0291 20.3533 29.0758 20.2867 29.1158 20.22C29.1558 20.1533 29.2024 20.0867 29.2558 20.02C29.5624 19.5667 29.8558 19.14 30.1358 18.74C30.4291 18.3267 30.7358 17.9 31.0558 17.46L31.0958 17.38C31.2024 17.2467 31.3024 17.12 31.3958 17C31.5024 16.8667 31.6024 16.7267 31.6958 16.58C31.9091 16.3267 32.1491 16.1133 32.4158 15.94C32.6158 15.78 32.8424 15.6933 33.0958 15.68C33.3091 15.68 33.5358 15.7333 33.7758 15.84C33.9358 15.9333 34.0558 16.0267 34.1358 16.12C34.2958 16.24 34.3958 16.3867 34.4358 16.56C34.4491 16.6933 34.4358 16.84 34.3958 17C34.3691 17.1067 34.3358 17.2 34.2958 17.28C34.2691 17.3467 34.2224 17.42 34.1558 17.5C34.0758 17.7 33.9891 17.8667 33.8958 18C33.8424 18.0933 33.7891 18.1733 33.7358 18.24C33.6824 18.3067 33.6358 18.38 33.5958 18.46L33.3558 18.8L30.5958 22.76L32.4558 25.46L33.5358 26.98C33.6558 27.18 33.7758 27.3733 33.8958 27.56C34.0158 27.7467 34.1358 27.9467 34.2558 28.16Z" fill="white"/>
</svg>
