<svg width="37" height="33" viewBox="0 0 37 33" fill="none" xmlns="http://www.w3.org/2000/svg">
<path d="M33.9167 0H3.08333C1.38108 0 0 1.38574 0 3.09375V23.7188C0 25.4268 1.38108 26.8125 3.08333 26.8125H15.4167L14.3889 29.9062H9.76389C8.90955 29.9062 8.22222 30.5959 8.22222 31.4531C8.22222 32.3104 8.90955 33 9.76389 33H27.2361C28.0905 33 28.7778 32.3104 28.7778 31.4531C28.7778 30.5959 28.0905 29.9062 27.2361 29.9062H22.6111L21.5833 26.8125H33.9167C35.6189 26.8125 37 25.4268 37 23.7188V3.09375C37 1.38574 35.6189 0 33.9167 0ZM32.8889 22.6875H4.11111V4.125H32.8889V22.6875Z" fill="white"/>
</svg>
